<mxfile host="65bd71144e">
    <diagram id="pIaEtrtLPv3HG8r1JEND" name="Page-1">
        <mxGraphModel dx="550" dy="447" grid="1" gridSize="10" guides="1" tooltips="1" connect="1" arrows="1" fold="1" page="1" pageScale="1" pageWidth="850" pageHeight="1100" math="0" shadow="0">
            <root>
                <mxCell id="0"/>
                <mxCell id="1" parent="0"/>
                <mxCell id="2" value="" style="rounded=0;whiteSpace=wrap;html=1;strokeWidth=0;" parent="1" vertex="1">
                    <mxGeometry x="80" y="80" width="400" height="300" as="geometry"/>
                </mxCell>
                <mxCell id="6" value="Volume of a Sphere!" style="text;strokeColor=none;fillColor=none;html=1;fontSize=24;fontStyle=1;verticalAlign=middle;align=center;strokeWidth=0;" parent="1" vertex="1">
                    <mxGeometry x="148" y="90" width="100" height="40" as="geometry"/>
                </mxCell>
                <mxCell id="7" value="Formula:" style="text;html=1;strokeColor=none;fillColor=none;align=center;verticalAlign=middle;whiteSpace=wrap;rounded=0;strokeWidth=0;" parent="1" vertex="1">
                    <mxGeometry x="88" y="120" width="60" height="30" as="geometry"/>
                </mxCell>
                <mxCell id="11" value="Radius:" style="fillColor=none;strokeColor=none;html=1;fontSize=11;fontStyle=0;align=left;fontColor=#596780;fontStyle=1;fontSize=11;labelBackgroundColor=none;strokeWidth=0;" parent="1" vertex="1">
                    <mxGeometry x="93" y="205" width="240" height="20" as="geometry"/>
                </mxCell>
                <mxCell id="12" value="Radius..." style="rounded=1;arcSize=9;fillColor=#F7F8F9;align=left;spacingLeft=5;strokeColor=#DEE1E6;html=1;strokeWidth=0;fontColor=#596780;fontSize=12;labelBackgroundColor=none;" parent="1" vertex="1">
                    <mxGeometry x="93" y="225" width="177" height="15" as="geometry"/>
                </mxCell>
                <mxCell id="14" value="&lt;span style=&quot;background-color: transparent&quot;&gt;&lt;div class=&quot;lr-fy-ecl lr-fy-eq-elem&quot; style=&quot;display: inline-block ; position: relative ; transition: all 0.05s ease-in-out 0s ; font-style: italic ; color: rgb(189 , 193 , 198) ; font-family: &amp;#34;stixgeneral&amp;#34; , &amp;#34;georgia&amp;#34; ; font-size: 36px ; margin-right: 10px ; margin-top: 0px ; margin-bottom: 0px&quot;&gt;V&lt;/div&gt;&lt;div class=&quot;lr-fy-eq-elem lr-fy-eq-add&quot; style=&quot;display: inline-block ; position: relative ; transition: all 0.05s ease-in-out 0s ; color: rgb(189 , 193 , 198) ; font-family: &amp;#34;stixgeneral&amp;#34; , &amp;#34;georgia&amp;#34; ; font-size: 36px ; margin-left: 0.2em ; margin-right: 0.2em&quot;&gt;=&lt;/div&gt;&lt;div class=&quot;lr-fy-eq-elem eiuJYe&quot; style=&quot;font-size: 27px ; display: inline-block ; position: relative ; transition: all 0.05s ease-in-out 0s ; color: rgb(189 , 193 , 198) ; font-family: &amp;#34;stixgeneral&amp;#34; , &amp;#34;georgia&amp;#34; ; margin-left: 5px ; vertical-align: middle ; margin-top: 0px ; margin-bottom: 0px&quot;&gt;&lt;div class=&quot;lr-fy-eq-elem&quot; style=&quot;display: inline-block ; position: relative ; transition: all 0.05s ease-in-out 0s&quot;&gt;&lt;div class=&quot;lr-fy-eq-elem&quot; style=&quot;display: inline-block ; position: relative ; transition: 0.05s ease-in-out 0s ; text-align: center ; vertical-align: middle&quot;&gt;&lt;div class=&quot;lr-fy-ecv lr-fy-eq-elem&quot; style=&quot;display: inline-block ; position: relative ; transition: 0.05s ease-in-out 0s ; font-family: &amp;#34;stixgeneral&amp;#34; , &amp;#34;times&amp;#34; , &amp;#34;times new roman&amp;#34; , serif&quot;&gt;4&lt;/div&gt;&lt;div class=&quot;lr-fy-eq-add&quot; style=&quot;width: 14px ; height: 1px ; margin-top: 2px ; margin-bottom: 2px&quot;&gt;&lt;/div&gt;&lt;div class=&quot;lr-fy-ecv lr-fy-eq-elem&quot; style=&quot;display: inline-block ; position: relative ; transition: 0.05s ease-in-out 0s ; font-family: &amp;#34;stixgeneral&amp;#34; , &amp;#34;times&amp;#34; , &amp;#34;times new roman&amp;#34; , serif&quot;&gt;3&lt;/div&gt;&lt;/div&gt;&lt;div class=&quot;lr-fy-eq-elem lr-fy-eq-add&quot; style=&quot;display: inline-block ; position: relative ; transition: 0.05s ease-in-out 0s ; margin-left: 0.2em&quot;&gt;&lt;/div&gt;&lt;div class=&quot;lr-fy-ecl lr-fy-eq-elem&quot; style=&quot;display: inline-block ; position: relative ; transition: 0.05s ease-in-out 0s ; font-style: italic&quot;&gt;Ï€&lt;/div&gt;&lt;/div&gt;&lt;div class=&quot;lr-fy-eq-elem lr-fy-eq-add&quot; style=&quot;display: inline-block ; position: relative ; transition: all 0.05s ease-in-out 0s ; margin-left: 0.2em&quot;&gt;&lt;/div&gt;&lt;div class=&quot;lr-fy-eq-elem&quot; style=&quot;display: inline-block ; position: relative ; transition: all 0.05s ease-in-out 0s&quot;&gt;&lt;div class=&quot;lr-fy-el lr-fy-eq-elem&quot; style=&quot;display: inline-block ; position: relative ; transition: all 0.05s ease-in-out 0s ; margin: -4px ; padding: 4px ; font-style: italic ; cursor: pointer&quot;&gt;r&lt;/div&gt;&lt;div class=&quot;lr-fy-ecv lr-fy-eq-elem&quot; style=&quot;display: inline-block ; position: relative ; transition: all 0.05s ease-in-out 0s ; font-family: &amp;#34;stixgeneral&amp;#34; , &amp;#34;times&amp;#34; , &amp;#34;times new roman&amp;#34; , serif ; margin-left: 0.15em ; vertical-align: top ; font-size: 13.5px&quot;&gt;3&lt;/div&gt;&lt;/div&gt;&lt;/div&gt;&lt;/span&gt;" style="text;html=1;strokeColor=none;fillColor=none;align=center;verticalAlign=middle;whiteSpace=wrap;rounded=0;labelBackgroundColor=none;fontColor=#FFFFFF;" parent="1" vertex="1">
                    <mxGeometry x="121" y="140" width="200" height="30" as="geometry"/>
                </mxCell>
                <mxCell id="16" value="" style="ellipse;shape=doubleEllipse;whiteSpace=wrap;html=1;aspect=fixed;labelBackgroundColor=none;fontColor=#FFFFFF;strokeWidth=0;" parent="1" vertex="1">
                    <mxGeometry x="320" y="170" width="140" height="140" as="geometry"/>
                </mxCell>
                <mxCell id="23" style="edgeStyle=none;html=1;exitX=1;exitY=0.5;exitDx=0;exitDy=0;entryX=1;entryY=0.5;entryDx=0;entryDy=0;fontColor=#FFFFFF;" parent="1" source="17" target="16" edge="1">
                    <mxGeometry relative="1" as="geometry"/>
                </mxCell>
                <mxCell id="17" value="Radius" style="text;html=1;strokeColor=none;fillColor=none;align=center;verticalAlign=middle;whiteSpace=wrap;rounded=0;labelBackgroundColor=none;fontColor=#FFFFFF;" parent="1" vertex="1">
                    <mxGeometry x="360" y="225" width="60" height="30" as="geometry"/>
                </mxCell>
                <mxCell id="25" value="Calculate!!" style="labelPosition=center;verticalLabelPosition=middle;align=center;html=1;shape=mxgraph.basic.button;dx=10;labelBackgroundColor=none;fontColor=#FFFFFF;strokeWidth=0;" parent="1" vertex="1">
                    <mxGeometry x="93" y="255" width="87" height="35" as="geometry"/>
                </mxCell>
            </root>
        </mxGraphModel>
    </diagram>
    <diagram id="mhesHbKuoSqmuG8BNe0T" name="Page-2">
        <mxGraphModel dx="550" dy="447" grid="1" gridSize="10" guides="1" tooltips="1" connect="1" arrows="1" fold="1" page="1" pageScale="1" pageWidth="827" pageHeight="1169" math="0" shadow="0">
            <root>
                <mxCell id="pPh1OJaQMjcnVhEty0DB-0"/>
                <mxCell id="pPh1OJaQMjcnVhEty0DB-1" parent="pPh1OJaQMjcnVhEty0DB-0"/>
                <mxCell id="pTULpgYlH3aXGpXSpKqA-0" value="" style="rounded=0;whiteSpace=wrap;html=1;strokeWidth=0;" parent="pPh1OJaQMjcnVhEty0DB-1" vertex="1">
                    <mxGeometry x="80" y="80" width="400" height="300" as="geometry"/>
                </mxCell>
                <mxCell id="ePdEI48e9szGU4m08hG3-0" value="Volume of a Sphere!" style="text;strokeColor=none;fillColor=none;html=1;fontSize=24;fontStyle=1;verticalAlign=middle;align=center;strokeWidth=0;" parent="pPh1OJaQMjcnVhEty0DB-1" vertex="1">
                    <mxGeometry x="148" y="90" width="100" height="40" as="geometry"/>
                </mxCell>
                <mxCell id="ePdEI48e9szGU4m08hG3-1" value="Formula:" style="text;html=1;strokeColor=none;fillColor=none;align=center;verticalAlign=middle;whiteSpace=wrap;rounded=0;strokeWidth=0;" parent="pPh1OJaQMjcnVhEty0DB-1" vertex="1">
                    <mxGeometry x="88" y="120" width="60" height="30" as="geometry"/>
                </mxCell>
                <mxCell id="ePdEI48e9szGU4m08hG3-2" value="Radius:" style="fillColor=none;strokeColor=none;html=1;fontSize=11;fontStyle=0;align=left;fontColor=#596780;fontStyle=1;fontSize=11;labelBackgroundColor=none;strokeWidth=0;" parent="pPh1OJaQMjcnVhEty0DB-1" vertex="1">
                    <mxGeometry x="93" y="205" width="240" height="20" as="geometry"/>
                </mxCell>
                <mxCell id="ePdEI48e9szGU4m08hG3-3" value="Radius..." style="rounded=1;arcSize=9;fillColor=#F7F8F9;align=left;spacingLeft=5;strokeColor=#DEE1E6;html=1;strokeWidth=0;fontColor=#596780;fontSize=12;labelBackgroundColor=none;" parent="pPh1OJaQMjcnVhEty0DB-1" vertex="1">
                    <mxGeometry x="93" y="225" width="177" height="15" as="geometry"/>
                </mxCell>
                <mxCell id="ePdEI48e9szGU4m08hG3-4" value="&lt;span style=&quot;background-color: transparent&quot;&gt;&lt;div class=&quot;lr-fy-ecl lr-fy-eq-elem&quot; style=&quot;display: inline-block ; position: relative ; transition: all 0.05s ease-in-out 0s ; font-style: italic ; color: rgb(189 , 193 , 198) ; font-family: &amp;#34;stixgeneral&amp;#34; , &amp;#34;georgia&amp;#34; ; font-size: 36px ; margin-right: 10px ; margin-top: 0px ; margin-bottom: 0px&quot;&gt;V&lt;/div&gt;&lt;div class=&quot;lr-fy-eq-elem lr-fy-eq-add&quot; style=&quot;display: inline-block ; position: relative ; transition: all 0.05s ease-in-out 0s ; color: rgb(189 , 193 , 198) ; font-family: &amp;#34;stixgeneral&amp;#34; , &amp;#34;georgia&amp;#34; ; font-size: 36px ; margin-left: 0.2em ; margin-right: 0.2em&quot;&gt;=&lt;/div&gt;&lt;div class=&quot;lr-fy-eq-elem eiuJYe&quot; style=&quot;font-size: 27px ; display: inline-block ; position: relative ; transition: all 0.05s ease-in-out 0s ; color: rgb(189 , 193 , 198) ; font-family: &amp;#34;stixgeneral&amp;#34; , &amp;#34;georgia&amp;#34; ; margin-left: 5px ; vertical-align: middle ; margin-top: 0px ; margin-bottom: 0px&quot;&gt;&lt;div class=&quot;lr-fy-eq-elem&quot; style=&quot;display: inline-block ; position: relative ; transition: all 0.05s ease-in-out 0s&quot;&gt;&lt;div class=&quot;lr-fy-eq-elem&quot; style=&quot;display: inline-block ; position: relative ; transition: 0.05s ease-in-out 0s ; text-align: center ; vertical-align: middle&quot;&gt;&lt;div class=&quot;lr-fy-ecv lr-fy-eq-elem&quot; style=&quot;display: inline-block ; position: relative ; transition: 0.05s ease-in-out 0s ; font-family: &amp;#34;stixgeneral&amp;#34; , &amp;#34;times&amp;#34; , &amp;#34;times new roman&amp;#34; , serif&quot;&gt;4&lt;/div&gt;&lt;div class=&quot;lr-fy-eq-add&quot; style=&quot;width: 14px ; height: 1px ; margin-top: 2px ; margin-bottom: 2px&quot;&gt;&lt;/div&gt;&lt;div class=&quot;lr-fy-ecv lr-fy-eq-elem&quot; style=&quot;display: inline-block ; position: relative ; transition: 0.05s ease-in-out 0s ; font-family: &amp;#34;stixgeneral&amp;#34; , &amp;#34;times&amp;#34; , &amp;#34;times new roman&amp;#34; , serif&quot;&gt;3&lt;/div&gt;&lt;/div&gt;&lt;div class=&quot;lr-fy-eq-elem lr-fy-eq-add&quot; style=&quot;display: inline-block ; position: relative ; transition: 0.05s ease-in-out 0s ; margin-left: 0.2em&quot;&gt;&lt;/div&gt;&lt;div class=&quot;lr-fy-ecl lr-fy-eq-elem&quot; style=&quot;display: inline-block ; position: relative ; transition: 0.05s ease-in-out 0s ; font-style: italic&quot;&gt;Ï€&lt;/div&gt;&lt;/div&gt;&lt;div class=&quot;lr-fy-eq-elem lr-fy-eq-add&quot; style=&quot;display: inline-block ; position: relative ; transition: all 0.05s ease-in-out 0s ; margin-left: 0.2em&quot;&gt;&lt;/div&gt;&lt;div class=&quot;lr-fy-eq-elem&quot; style=&quot;display: inline-block ; position: relative ; transition: all 0.05s ease-in-out 0s&quot;&gt;&lt;div class=&quot;lr-fy-el lr-fy-eq-elem&quot; style=&quot;display: inline-block ; position: relative ; transition: all 0.05s ease-in-out 0s ; margin: -4px ; padding: 4px ; font-style: italic ; cursor: pointer&quot;&gt;r&lt;/div&gt;&lt;div class=&quot;lr-fy-ecv lr-fy-eq-elem&quot; style=&quot;display: inline-block ; position: relative ; transition: all 0.05s ease-in-out 0s ; font-family: &amp;#34;stixgeneral&amp;#34; , &amp;#34;times&amp;#34; , &amp;#34;times new roman&amp;#34; , serif ; margin-left: 0.15em ; vertical-align: top ; font-size: 13.5px&quot;&gt;3&lt;/div&gt;&lt;/div&gt;&lt;/div&gt;&lt;/span&gt;" style="text;html=1;strokeColor=none;fillColor=none;align=center;verticalAlign=middle;whiteSpace=wrap;rounded=0;labelBackgroundColor=none;fontColor=#FFFFFF;" parent="pPh1OJaQMjcnVhEty0DB-1" vertex="1">
                    <mxGeometry x="113" y="140" width="200" height="30" as="geometry"/>
                </mxCell>
                <mxCell id="ePdEI48e9szGU4m08hG3-5" value="" style="ellipse;shape=doubleEllipse;whiteSpace=wrap;html=1;aspect=fixed;labelBackgroundColor=none;fontColor=#FFFFFF;strokeWidth=0;" parent="pPh1OJaQMjcnVhEty0DB-1" vertex="1">
                    <mxGeometry x="320" y="170" width="140" height="140" as="geometry"/>
                </mxCell>
                <mxCell id="ePdEI48e9szGU4m08hG3-6" style="edgeStyle=none;html=1;exitX=1;exitY=0.5;exitDx=0;exitDy=0;entryX=1;entryY=0.5;entryDx=0;entryDy=0;fontColor=#FFFFFF;" parent="pPh1OJaQMjcnVhEty0DB-1" source="ePdEI48e9szGU4m08hG3-7" target="ePdEI48e9szGU4m08hG3-5" edge="1">
                    <mxGeometry relative="1" as="geometry"/>
                </mxCell>
                <mxCell id="ePdEI48e9szGU4m08hG3-7" value="Radius" style="text;html=1;strokeColor=none;fillColor=none;align=center;verticalAlign=middle;whiteSpace=wrap;rounded=0;labelBackgroundColor=none;fontColor=#FFFFFF;" parent="pPh1OJaQMjcnVhEty0DB-1" vertex="1">
                    <mxGeometry x="360" y="225" width="60" height="30" as="geometry"/>
                </mxCell>
                <mxCell id="ePdEI48e9szGU4m08hG3-8" value="Calculate!!" style="labelPosition=center;verticalLabelPosition=middle;align=center;html=1;shape=mxgraph.basic.button;dx=10;labelBackgroundColor=none;fontColor=#FFFFFF;strokeWidth=0;" parent="pPh1OJaQMjcnVhEty0DB-1" vertex="1">
                    <mxGeometry x="93" y="255" width="87" height="35" as="geometry"/>
                </mxCell>
                <mxCell id="ePdEI48e9szGU4m08hG3-9" value="The volume is ______ cm&lt;a href=&quot;https://www.compart.com/en/unicode/U+00B3&quot; style=&quot;outline: 0px ; font-family: &amp;quot;arial&amp;quot; , sans-serif ; font-size: small ; text-align: left ; background-color: rgb(32 , 33 , 36)&quot;&gt;&lt;h3 class=&quot;LC20lb MBeuO DKV0Md&quot; style=&quot;font-weight: 400 ; margin: 0px 0px 3px ; padding: 5px 0px 0px ; font-size: 20px ; line-height: 1.3 ; display: inline-block&quot;&gt;&lt;font color=&quot;#ffffff&quot;&gt;Â³&lt;/font&gt;&lt;/h3&gt;&lt;/a&gt;" style="text;html=1;strokeColor=none;fillColor=none;align=center;verticalAlign=middle;whiteSpace=wrap;rounded=0;labelBackgroundColor=none;fontColor=#FFFFFF;" parent="pPh1OJaQMjcnVhEty0DB-1" vertex="1">
                    <mxGeometry x="63" y="270" width="207" height="60" as="geometry"/>
                </mxCell>
            </root>
        </mxGraphModel>
    </diagram>
</mxfile>